<?xml version="1.0" standalone="no"?>
<!DOCTYPE svg PUBLIC "-//W3C//DTD SVG 20010904//EN"
 "http://www.w3.org/TR/2001/REC-SVG-20010904/DTD/svg10.dtd">
<svg version="1.0" xmlns="http://www.w3.org/2000/svg"
 width="564.000000pt" height="638.000000pt" viewBox="0 0 564.000000 638.000000"
 preserveAspectRatio="xMidYMid meet">

<g transform="translate(0.000000,638.000000) scale(0.100000,-0.100000)"
fill="#000000" stroke="none">
<path d="M3020 5618 c-65 -46 -199 -147 -240 -182 -47 -41 -228 -223 -265
-266 -64 -76 -120 -149 -150 -199 -5 -9 -20 -30 -31 -46 -22 -30 -56 -88 -81
-137 -14 -28 -23 -32 -83 -43 -33 -6 -65 -17 -102 -36 -10 -5 -22 -9 -28 -9
-12 0 -157 -70 -230 -111 -72 -41 -201 -139 -268 -203 -51 -49 -159 -173 -195
-226 -97 -139 -177 -281 -211 -375 -10 -27 -22 -54 -27 -60 -4 -5 -10 -27 -14
-47 l-7 -37 54 16 c29 8 68 17 86 20 18 3 35 9 38 14 3 5 18 9 34 9 16 0 41 5
55 12 20 9 28 9 38 -1 9 -9 9 -14 0 -19 -22 -14 -119 -220 -156 -332 -48 -144
-65 -227 -75 -370 -13 -167 10 -476 39 -532 5 -10 9 -26 9 -36 0 -18 23 -95
40 -137 4 -11 16 -40 25 -65 30 -81 77 -170 86 -164 5 3 9 16 9 29 0 13 4 26
8 29 4 3 14 28 22 56 8 28 18 49 24 47 6 -2 30 -40 53 -85 23 -45 58 -106 77
-137 20 -30 36 -57 36 -60 0 -2 21 -35 48 -72 l47 -68 5 -390 5 -390 30 -54
c16 -29 49 -70 72 -91 83 -73 44 -70 975 -70 645 0 841 3 869 13 87 30 157
100 190 190 18 49 19 90 19 677 l0 625 -28 53 c-20 39 -122 147 -405 431 -338
339 -383 381 -427 395 -41 13 -105 16 -404 16 -196 0 -356 4 -356 8 0 9 91
142 125 183 35 43 139 123 190 148 79 37 86 40 155 56 140 32 390 7 390 -40 0
-11 -13 -29 -29 -40 -43 -31 -104 -86 -99 -90 2 -3 20 0 39 5 43 13 423 13
447 1 9 -5 44 -17 77 -26 126 -35 201 -57 220 -65 29 -12 200 -56 335 -85 206
-46 282 -56 488 -61 100 -3 182 -7 182 -9 0 -16 -55 -102 -77 -122 -64 -55
-97 -62 -358 -73 -335 -15 -407 -29 -580 -111 -11 -6 -38 -26 -59 -47 l-39
-36 64 -59 c95 -86 78 -84 193 -31 16 8 35 14 43 14 7 0 21 4 31 9 46 24 138
33 381 36 158 2 275 8 298 15 116 35 208 104 275 208 44 67 98 172 98 191 0 9
35 46 90 96 23 20 84 141 96 190 6 25 -17 65 -37 65 -5 0 -33 16 -63 35 -30
19 -58 35 -61 35 -4 0 -19 8 -33 19 -15 10 -54 33 -87 51 -33 18 -73 41 -90
50 -16 10 -59 34 -93 54 -35 20 -68 36 -73 36 -5 0 -9 4 -9 9 0 5 -8 11 -17
14 -10 4 -90 44 -178 90 -176 92 -158 75 -231 232 -39 85 -125 220 -171 270
-58 62 -211 182 -273 213 -14 7 -34 19 -44 27 -24 18 -24 8 34 505 14 118 28
226 36 283 4 26 4 47 0 47 -9 0 -66 -41 -214 -154 -212 -161 -277 -220 -355
-315 -17 -22 -39 -66 -51 -104 -10 -32 -23 -9 -29 50 -7 72 -25 226 -32 273
-3 19 -10 69 -15 110 -6 41 -15 107 -21 145 -6 39 -13 87 -16 108 -3 20 -8 37
-12 37 -3 -1 -26 -15 -51 -32z m-143 -615 c-4 -54 -7 -161 -7 -238 l-1 -140
-57 -37 c-31 -20 -75 -46 -97 -59 -22 -12 -78 -44 -125 -70 -77 -44 -110 -57
-110 -44 0 9 93 232 120 285 48 98 136 246 163 276 7 6 30 37 52 68 59 84 69
77 62 -41z m937 -904 c61 -28 156 -122 156 -154 0 -19 -8 -25 -51 -35 -44 -11
-62 -10 -128 5 -112 27 -185 71 -235 144 -42 61 -22 72 124 67 64 -3 97 -9
134 -27z"/>
</g>
</svg>
